<svg width="512" height="512" viewBox="0 0 512 512" fill="none" xmlns="http://www.w3.org/2000/svg">
  <!-- Fond avec coins arrondis -->
  <rect width="512" height="512" rx="110" fill="url(#paint0_linear)"/>
  
  <!-- Dégradé violet -->
  <defs>
    <linearGradient id="paint0_linear" x1="0" y1="0" x2="512" y2="512" gradientUnits="userSpaceOnUse">
      <stop stop-color="#7578db"/>
      <stop offset="1" stop-color="#6b6fdb"/>
    </linearGradient>
  </defs>
  
  <!-- Bulle de chat principale (style JemaOS) -->
  <path d="M 256 100 C 170 100 100 160 100 235 C 100 280 120 320 150 350 L 140 390 L 180 370 C 205 380 230 385 256 385 C 342 385 412 325 412 250 C 412 175 342 100 256 100 Z" 
        fill="white" 
        fill-opacity="0.95"/>
  
  <!-- Lettre A minimaliste -->
  <path d="M 256 180 L 220 280 L 240 280 L 246 260 L 266 260 L 272 280 L 292 280 L 256 180 Z M 250 245 L 256 225 L 262 245 L 250 245 Z" 
        fill="#6b6fdb"/>
  
  <!-- Point de notification (style JemaOS) -->
  <circle cx="370" cy="140" r="35" fill="#00a884"/>
  <text x="370" y="155" font-family="system-ui" font-size="40" font-weight="700" fill="white" text-anchor="middle">1</text>
</svg>